:SAMPLES-PER-SECOND 30
:FULLY-SPECIFIED
:DEGREES
322
root  17.4384 26.7039 -3.48356 9.9032 -15.9543 2.85541
RightUpLeg  -51.9646 11.6214 -39.4399
RightLeg  49.0203 -3.13933 -3.21399
RightFoot  10.8855 0.0915078 -0.582792
RightToes  -43.6015 -0.247874 -0.334549
Spine  16.0172 -2.5648 4.39525
Spine1  27.1082 -7.09352 10.0877
HEad  13.11 -9.40979 11.47
LeftShoulder1  0 -2.42657e-020 -4.95415e-022
LeftArm  -4.89228 -18.8408 -90.5659
LeftForeArm  -163.892 -46.0163 -9.97874
LeftHand  11.0489 -23.8415 -49.6113
RightShoulder  0 2.42657e-020 1.07489e-018
RightArm  -16.3101 8.16053 18.4254
RightForeArm  -26.3168 35.6328 7.18014
RightHand  6.93207 18.3356 41.5246
LeftUpLeg  -48.8782 -12.4444 15.8191
LeftLeg  68.5657 -3.05003 -6.49032
LeftFoot  -22.3303 0.250407 1.26864
LeftToes  -42.0676 1.18758e-006 1.19596e-007
323
root  19.4536 27.6666 -3.31371 9.70947 -23.0821 1.35711
RightUpLeg  -52.0532 8.18883 -31.3596
RightLeg  48.8753 -1.37518 -1.42674
RightFoot  8.88651 0.0567483 -0.352716
RightToes  -46.8977 -0.275795 -0.35068
Spine  15.3289 -3.36184 3.63553
Spine1  26.3994 -8.89002 9.23393
HEad  16.3915 -8.37034 11.0553
LeftShoulder1  0 -2.42657e-020 -4.95415e-022
LeftArm  -7.39546 -16.3053 -88.496
LeftForeArm  -165.325 -46.3797 -10.1129
LeftHand  11.1942 -23.786 -50.2897
RightShoulder  0 2.42657e-020 1.07489e-018
RightArm  -19.3033 5.53677 25.4917
RightForeArm  -25.75 34.3043 6.83108
RightHand  6.77709 18.4919 40.3582
LeftUpLeg  -45.5005 -11.1117 12.4726
LeftLeg  66.6894 -0.866435 -1.71415
LeftFoot  -21.796 -0.0818497 -0.425126
LeftToes  -34.8767 1.18758e-006 1.19596e-007
324
root  21.327 28.5353 -3.06906 9.19031 -29.6489 1.1169
RightUpLeg  -51.1734 6.55385 -24.5346
RightLeg  52.6327 -1.2299 -1.46668
RightFoot  4.91473 0.0321977 -0.372645
RightToes  -46.6484 -0.273651 -0.349516
Spine  14.2055 -4.3018 2.21551
Spine1  24.9873 -10.8896 7.45684
HEad  20.6421 -9.57582 11.6357
LeftShoulder1  0 -2.42657e-020 -4.95415e-022
LeftArm  -9.47095 -12.9927 -86.0538
LeftForeArm  -165.223 -45.5221 -9.80174
LeftHand  11.274 -23.9861 -50.2245
RightShoulder  0 2.42657e-020 1.07489e-018
RightArm  -23.4919 1.53753 34.1086
RightForeArm  -24.7422 33.2854 6.57269
RightHand  6.48158 18.2365 39.2473
LeftUpLeg  -42.285 -10.2002 8.59695
LeftLeg  63.6594 1.5043 2.58899
LeftFoot  -20.9768 -0.3409 -1.84127
LeftToes  -28.4063 1.18758e-006 1.19596e-007
325
root  22.9219 29.3571 -2.75871 8.54443 -36.9861 1.1329
RightUpLeg  -49.0686 7.74384 -18.5759
RightLeg  57.4907 -3.80734 -5.25784
RightFoot  -2.37653 -0.00627981 0.0748145
RightToes  -40.3256 -0.221089 -0.316954
Spine  13.146 -4.84368 0.801531
Spine1  23.7583 -11.8582 5.16306
HEad  23.9322 -11.3691 12.0912
LeftShoulder1  0 -2.42657e-020 -4.95415e-022
LeftArm  -11.9402 -9.15011 -84.2219
LeftForeArm  -164.991 -44.3319 -9.38561
LeftHand  11.2427 -24.2863 -49.544
RightShoulder  0 2.42657e-020 1.07489e-018
RightArm  -29.5206 -4.18068 43.0893
RightForeArm  -22.2946 34.678 6.93896
RightHand  6.35186 18.1608 38.6743
LeftUpLeg  -38.9136 -7.72705 5.03017
LeftLeg  60.1589 4.00271 6.00458
LeftFoot  -20.0476 -0.521239 -2.94831
LeftToes  -22.0534 1.18758e-006 1.19596e-007
326
root  24.2451 30.0901 -2.4611 8.15967 -44.9352 0.760699
RightUpLeg  -44.8928 9.60374 -12.5113
RightLeg  60.9179 -6.70901 -10.3717
RightFoot  -7.51143 0.0723144 1.47927
RightToes  -33.216 -0.166682 -0.273685
Spine  12.3334 -5.06356 -0.0610563
Spine1  22.9443 -11.7735 2.77605
HEad  26.6416 -12.3329 11.776
LeftShoulder1  0 -2.42657e-020 -4.95415e-022
LeftArm  -15.2418 -5.01775 -83.3087
LeftForeArm  -167.552 -43.6168 -9.14606
LeftHand  11.459 -24.6037 -49.7959
RightShoulder  0 2.42657e-020 1.07489e-018
RightArm  -37.1435 -10.611 51.9689
RightForeArm  -19.5036 37.8861 7.82466
RightHand  6.45433 18.4496 38.6738
LeftUpLeg  -35.6812 -4.57188 2.49604
LeftLeg  56.5254 6.51635 8.5076
LeftFoot  -19.6902 -0.679947 -3.91661
LeftToes  -17.2859 1.18758e-006 1.19596e-007
327
root  25.4313 30.7126 -2.19952 8.16846 -53.0482 0.54404
RightUpLeg  -39.2622 9.74441 -7.35423
RightLeg  61.3168 -7.86011 -12.2581
RightFoot  -9.28417 0.153967 2.27375
RightToes  -30.3778 -0.146531 -0.254583
Spine  11.454 -5.32012 -0.586943
Spine1  21.8664 -11.6437 0.625558
HEad  28.8493 -12.139 11.3618
LeftShoulder1  0 -2.42657e-020 -4.95415e-022
LeftArm  -19.1121 -0.622047 -83.293
LeftForeArm  -168.904 -43.1716 -8.99987
LeftHand  11.6188 -24.6959 -50.236
RightShoulder  0 2.42657e-020 1.07489e-018
RightArm  -44.8445 -16.4131 60.0968
RightForeArm  -17.3568 41.0467 8.77655
RightHand  6.39577 18.6785 37.9102
LeftUpLeg  -33.144 -2.57764 0.429706
LeftLeg  52.4553 8.0341 9.05448
LeftFoot  -19.9502 -0.759448 -4.31605
LeftToes  -14.8534 1.18758e-006 1.19596e-007
